<svg xmlns="http://www.w3.org/2000/svg" version="1.1" xmlns:xlink="http://www.w3.org/1999/xlink" xmlns:svgjs="http://svgjs.dev/svgjs" width="1000" height="623" viewBox="0 0 1000 623"><g transform="matrix(1,0,0,1,-0.6060606060606233,0.2522267206477409)"><svg viewBox="0 0 396 247" data-background-color="#101924" preserveAspectRatio="xMidYMid meet" height="623" width="1000" xmlns="http://www.w3.org/2000/svg" xmlns:xlink="http://www.w3.org/1999/xlink"><g id="tight-bounds" transform="matrix(1,0,0,1,0.2400000000000091,-0.09999999999999432)"><svg viewBox="0 0 395.52 247.2" height="247.2" width="395.52"><g><svg></svg></g><g><svg viewBox="0 0 395.52 247.2" height="247.2" width="395.52"><mask id="eb808834-b033-4bcc-a24a-10452fc250a2"><rect width="640" height="400" fill="white"></rect><g transform="matrix(1,0,0,1,39.55199999999999,84.43868923332738)"><svg viewBox="0 0 316.416 78.32262153334521" height="78.32262153334521" width="316.416"><g><svg viewBox="0 0 316.416 78.32262153334521" height="78.32262153334521" width="316.416"><g><svg viewBox="0 0 316.416 78.32262153334521" height="78.32262153334521" width="316.416"><g><svg viewBox="0 0 316.416 78.32262153334521" height="78.32262153334521" width="316.416"><g id="SvgjsG5834"><svg viewBox="0 0 316.416 78.32262153334521" height="78.32262153334521" width="316.416" id="SvgjsSvg5833"><g><svg viewBox="0 0 316.416 78.32262153334521" height="78.32262153334521" width="316.416"><g transform="matrix(1,0,0,1,0,0)"><svg width="316.416" viewBox="-2.3899999856948853 -36.810001373291016 198.30999755859375 49.84000015258789" height="78.32262153334521" data-palette-color="#f2aa64"><path d="M10.6 0.24Q8.2 0.24 6.14-0.28 4.08-0.81 2.84-1.55 1.61-2.29 1.61-2.91L1.61-2.91Q1.61-3.25 1.89-3.81 2.17-4.37 2.54-4.81 2.91-5.25 3.13-5.25L3.13-5.25Q3.32-5.25 3.98-4.86L3.98-4.86Q5.49-4.08 6.98-3.56 8.47-3.05 10.6-3.05L10.6-3.05Q12.26-3.05 13.55-3.69 14.84-4.32 15.56-5.48 16.28-6.64 16.28-8.15L16.28-8.15Q16.28-9.77 15.42-10.83 14.55-11.89 13.32-12.51 12.08-13.13 9.74-14.06L9.74-14.06Q7.2-15.04 5.73-15.88 4.25-16.72 3.21-18.33 2.17-19.95 2.17-22.61L2.17-22.61Q2.17-24.93 3.37-26.77 4.57-28.61 6.76-29.64 8.96-30.66 11.82-30.66L11.82-30.66Q13.11-30.66 14.77-30.31 16.43-29.96 17.61-29.35 18.8-28.74 18.8-28L18.8-28Q18.8-27.69 18.54-27.14 18.29-26.59 17.94-26.15 17.6-25.71 17.41-25.71L17.41-25.71Q17.19-25.71 16.53-26.07L16.53-26.07Q15.43-26.66 14.36-27.01 13.28-27.37 11.74-27.37L11.74-27.37Q9.23-27.37 7.68-26.07 6.13-24.78 6.13-22.46L6.13-22.46Q6.13-21.07 6.81-20.17 7.5-19.26 8.54-18.73 9.59-18.19 11.47-17.48L11.47-17.48Q11.6-17.46 12.04-17.29L12.04-17.29Q14.62-16.28 16.27-15.34 17.92-14.4 19.08-12.65 20.24-10.89 20.24-8.15L20.24-8.15Q20.24-5.59 19.06-3.69 17.87-1.78 15.69-0.77 13.5 0.24 10.6 0.24L10.6 0.24ZM31.96 0.24Q29.78 0.24 28.07-1.07 26.36-2.39 26.36-5.74L26.36-5.74 26.36-19.58 24.19-19.58Q23.73-19.58 23.52-19.89 23.31-20.19 23.31-20.87L23.31-20.87 23.31-21.41Q23.31-22.09 23.52-22.4 23.73-22.71 24.19-22.71L24.19-22.71 26.36-22.71 26.88-27.25Q26.93-28.2 28.27-28.2L28.27-28.2 28.68-28.2Q29.37-28.2 29.68-27.97 30-27.73 30-27.25L30-27.25 30-22.71 33.64-22.71Q34.1-22.71 34.31-22.4 34.52-22.09 34.52-21.41L34.52-21.41 34.52-20.87Q34.52-20.19 34.31-19.89 34.1-19.58 33.64-19.58L33.64-19.58 30-19.58 30-6.08Q30-4.3 30.62-3.59 31.25-2.88 32.32-2.88L32.32-2.88Q33.15-2.88 33.6-2.98 34.06-3.08 34.2-3.08L34.2-3.08Q34.59-3.08 34.85-2.29 35.1-1.51 35.1-1.05L35.1-1.05Q35.1 0.24 31.96 0.24L31.96 0.24ZM49.02 0.24Q44.11 0.24 41.54-2.7 38.96-5.64 38.96-11.25L38.96-11.25Q38.96-16.87 41.57-19.91 44.18-22.95 49.02-22.95L49.02-22.95Q53.8-22.95 56.34-19.93 58.88-16.92 58.88-11.25L58.88-11.25Q58.88-5.62 56.38-2.69 53.88 0.24 49.02 0.24L49.02 0.24ZM48.9-2.88Q52.07-2.88 53.58-4.94 55.1-7.01 55.1-11.33L55.1-11.33Q55.1-15.67 53.58-17.75 52.07-19.82 48.9-19.82L48.9-19.82Q45.75-19.82 44.26-17.76 42.77-15.7 42.77-11.33L42.77-11.33Q42.77-6.98 44.25-4.93 45.72-2.88 48.9-2.88L48.9-2.88ZM66.94 0.07Q66.01 0.07 65.59-0.16 65.18-0.39 65.18-0.88L65.18-0.88 65.18-16.11Q65.18-18.95 64.91-20.2 64.64-21.46 64.64-21.58L64.64-21.58Q64.64-22.12 65.46-22.35 66.28-22.58 67.01-22.58L67.01-22.58Q67.6-22.58 67.89-21.96 68.18-21.34 68.4-20.21L68.4-20.21 68.52-19.7Q70.84-22.95 73.55-22.95L73.55-22.95Q74.8-22.95 75.43-22.5 76.07-22.05 76.07-21.29L76.07-21.29Q76.07-20.56 75.81-19.74 75.55-18.92 75.21-18.92L75.21-18.92Q75.04-18.92 74.6-19.07L74.6-19.07Q74.21-19.24 73.82-19.32 73.43-19.41 72.82-19.41L72.82-19.41Q71.82-19.41 70.93-18.82 70.04-18.24 69.43-17.53 68.82-16.82 68.82-16.75L68.82-16.75 68.82-0.88Q68.82-0.39 68.4-0.16 67.99 0.07 67.11 0.07L67.11 0.07 66.94 0.07ZM83.22 9.03Q81.8 9.03 81.8 8.33L81.8 8.33Q81.8 8.15 82 7.62L82 7.62 85.63-1.22 78.04-21.48Q78.02-21.58 77.97-21.77 77.92-21.95 77.92-22.05L77.92-22.05Q77.92-22.39 78.38-22.58 78.85-22.78 79.8-22.78L79.8-22.78 80.14-22.78Q81.61-22.78 81.87-22.09L81.87-22.09 86.29-10.33Q86.88-8.79 87.69-5.96L87.69-5.96 87.76-5.96 88.27-7.57Q88.39-7.93 88.69-8.83 88.98-9.72 89.22-10.33L89.22-10.33 93.54-22.09Q93.76-22.78 95.33-22.78L95.33-22.78 95.47-22.78Q97.18-22.78 97.18-22.05L97.18-22.05Q97.18-21.88 97.06-21.46L97.06-21.46 85.93 8.13Q85.54 9.03 83.88 9.03L83.88 9.03 83.22 9.03ZM114.47 0.24Q107.34 0.24 103.92-3.52 100.5-7.28 100.5-15.21L100.5-15.21Q100.5-30.66 114.54-30.66L114.54-30.66Q116.59-30.66 118.52-30.24 120.45-29.81 121.64-29.17 122.84-28.54 122.84-27.95L122.84-27.95Q122.84-27.59 122.58-26.98 122.33-26.37 121.98-25.9 121.64-25.44 121.37-25.44L121.37-25.44Q121.25-25.44 120.69-25.76L120.69-25.76Q119.42-26.44 118.03-26.9 116.64-27.37 114.64-27.37L114.64-27.37Q109.39-27.37 106.91-24.45 104.43-21.53 104.43-15.16L104.43-15.16Q104.43-8.94 106.88-5.99 109.34-3.05 114.47-3.05L114.47-3.05Q116.61-3.05 118.15-3.56 119.69-4.08 121.11-4.83L121.11-4.83Q121.79-5.2 121.94-5.2L121.94-5.2Q122.2-5.2 122.56-4.74 122.91-4.27 123.18-3.7 123.45-3.13 123.45-2.88L123.45-2.88Q123.45-2.27 122.22-1.53 120.98-0.78 118.92-0.27 116.86 0.24 114.47 0.24L114.47 0.24ZM130.55 0.07Q129.62 0.07 129.21-0.16 128.79-0.39 128.79-0.88L128.79-0.88 128.79-16.11Q128.79-18.95 128.53-20.2 128.26-21.46 128.26-21.58L128.26-21.58Q128.26-22.12 129.07-22.35 129.89-22.58 130.62-22.58L130.62-22.58Q131.21-22.58 131.5-21.96 131.8-21.34 132.02-20.21L132.02-20.21 132.14-19.7Q134.46-22.95 137.17-22.95L137.17-22.95Q138.41-22.95 139.05-22.5 139.68-22.05 139.68-21.29L139.68-21.29Q139.68-20.56 139.43-19.74 139.17-18.92 138.83-18.92L138.83-18.92Q138.66-18.92 138.22-19.07L138.22-19.07Q137.83-19.24 137.44-19.32 137.05-19.41 136.44-19.41L136.44-19.41Q135.43-19.41 134.54-18.82 133.65-18.24 133.04-17.53 132.43-16.82 132.43-16.75L132.43-16.75 132.43-0.88Q132.43-0.39 132.02-0.16 131.6 0.07 130.72 0.07L130.72 0.07 130.55 0.07ZM150.3 0.24Q146.98 0.24 144.93-1.39 142.88-3.03 142.88-6.25L142.88-6.25Q142.88-9.64 144.95-11.36 147.03-13.09 150.02-13.59 153.01-14.09 157.28-14.16L157.28-14.16 157.28-16.21Q157.28-17.85 156.17-18.84 155.06-19.82 152.52-19.82L152.52-19.82Q150.59-19.82 149.14-19.37 147.69-18.92 146.42-18.29L146.42-18.29Q145.88-18.02 145.76-18.02L145.76-18.02Q145.47-18.02 145.11-18.44 144.76-18.87 144.5-19.41 144.25-19.95 144.25-20.19L144.25-20.19Q144.25-20.75 145.4-21.41 146.56-22.07 148.44-22.51 150.32-22.95 152.38-22.95L152.38-22.95Q156.45-22.95 158.7-21.17 160.94-19.38 160.94-16.16L160.94-16.16 160.94-6.42Q160.94-3.59 161.2-2.33 161.46-1.07 161.46-0.95L161.46-0.95Q161.46-0.42 160.64-0.18 159.82 0.05 159.11 0.05L159.11 0.05Q158.53 0.05 158.25-0.61 157.97-1.27 157.7-2.51L157.7-2.51 157.6-3Q156.26-1.51 154.44-0.63 152.62 0.24 150.3 0.24L150.3 0.24ZM150.5-2.91Q152.64-2.91 154.16-3.69 155.67-4.47 157.28-5.91L157.28-5.91 157.28-11.04Q154.06-11.01 151.98-10.77 149.91-10.52 148.35-9.53 146.78-8.54 146.78-6.47L146.78-6.47Q146.78-4.74 147.72-3.82 148.66-2.91 150.5-2.91L150.5-2.91ZM170.83 0.07Q169.93 0.07 169.51-0.16 169.1-0.39 169.1-0.88L169.1-0.88 169.1-19.58 167.36-19.58Q166.48-19.58 166.48-20.87L166.48-20.87 166.48-21.41Q166.48-22.71 167.36-22.71L167.36-22.71 169.1-22.71 169.1-26.83Q169.1-30.25 170.79-31.53 172.49-32.81 174.69-32.81L174.69-32.81Q177.86-32.81 177.86-31.49L177.86-31.49Q177.86-31.27 177.75-30.77 177.64-30.27 177.43-29.88 177.23-29.49 176.96-29.49L176.96-29.49Q176.81-29.49 176.35-29.59 175.88-29.69 175.08-29.69L175.08-29.69Q174.35-29.69 173.84-29.47 173.34-29.25 173.04-28.54 172.73-27.83 172.73-26.49L172.73-26.49 172.73-22.71 176.52-22.71Q176.98-22.71 177.19-22.4 177.4-22.09 177.4-21.41L177.4-21.41 177.4-20.87Q177.4-20.19 177.19-19.89 176.98-19.58 176.52-19.58L176.52-19.58 172.73-19.58 172.73-0.88Q172.73-0.39 172.32-0.16 171.9 0.07 171.02 0.07L171.02 0.07 170.83 0.07ZM188.77 0.24Q186.6 0.24 184.89-1.07 183.18-2.39 183.18-5.74L183.18-5.74 183.18-19.58 181.01-19.58Q180.54-19.58 180.34-19.89 180.13-20.19 180.13-20.87L180.13-20.87 180.13-21.41Q180.13-22.09 180.34-22.4 180.54-22.71 181.01-22.71L181.01-22.71 183.18-22.71 183.69-27.25Q183.74-28.2 185.08-28.2L185.08-28.2 185.5-28.2Q186.18-28.2 186.5-27.97 186.82-27.73 186.82-27.25L186.82-27.25 186.82-22.71 190.46-22.71Q190.92-22.71 191.13-22.4 191.33-22.09 191.33-21.41L191.33-21.41 191.33-20.87Q191.33-20.19 191.13-19.89 190.92-19.58 190.46-19.58L190.46-19.58 186.82-19.58 186.82-6.08Q186.82-4.3 187.44-3.59 188.06-2.88 189.14-2.88L189.14-2.88Q189.97-2.88 190.42-2.98 190.87-3.08 191.02-3.08L191.02-3.08Q191.41-3.08 191.66-2.29 191.92-1.51 191.92-1.05L191.92-1.05Q191.92 0.24 188.77 0.24L188.77 0.24Z" opacity="1" transform="matrix(1,0,0,1,0,0)" fill="black" class="wordmark-text-0" id="SvgjsPath5832" stroke-width="7" stroke="black" stroke-linejoin="round"></path></svg></g></svg></g></svg></g></svg></g></svg></g></svg></g></svg></g></mask><g transform="matrix(1,0,0,1,39.55199999999999,84.43868923332738)"><svg viewBox="0 0 316.416 78.32262153334521" height="78.32262153334521" width="316.416"><g><svg viewBox="0 0 316.416 78.32262153334521" height="78.32262153334521" width="316.416"><g><svg viewBox="0 0 316.416 78.32262153334521" height="78.32262153334521" width="316.416"><g><svg viewBox="0 0 316.416 78.32262153334521" height="78.32262153334521" width="316.416"><g id="textblocktransform"><svg viewBox="0 0 316.416 78.32262153334521" height="78.32262153334521" width="316.416" id="textblock"><g><svg viewBox="0 0 316.416 78.32262153334521" height="78.32262153334521" width="316.416"><g transform="matrix(1,0,0,1,0,0)"><svg width="316.416" viewBox="-2.3899999856948853 -36.810001373291016 198.30999755859375 49.84000015258789" height="78.32262153334521" data-palette-color="#f2aa64"><path d="M10.6 0.24Q8.2 0.24 6.14-0.28 4.08-0.81 2.84-1.55 1.61-2.29 1.61-2.91L1.61-2.91Q1.61-3.25 1.89-3.81 2.17-4.37 2.54-4.81 2.91-5.25 3.13-5.25L3.13-5.25Q3.32-5.25 3.98-4.86L3.98-4.86Q5.49-4.08 6.98-3.56 8.47-3.05 10.6-3.05L10.6-3.05Q12.26-3.05 13.55-3.69 14.84-4.32 15.56-5.48 16.28-6.64 16.28-8.15L16.28-8.15Q16.28-9.77 15.42-10.83 14.55-11.89 13.32-12.51 12.08-13.13 9.74-14.06L9.74-14.06Q7.2-15.04 5.73-15.88 4.25-16.72 3.21-18.33 2.17-19.95 2.17-22.61L2.17-22.61Q2.17-24.93 3.37-26.77 4.57-28.61 6.76-29.64 8.96-30.66 11.82-30.66L11.82-30.66Q13.11-30.66 14.77-30.31 16.43-29.96 17.61-29.35 18.8-28.74 18.8-28L18.8-28Q18.8-27.69 18.54-27.14 18.29-26.59 17.94-26.15 17.6-25.71 17.41-25.71L17.41-25.71Q17.19-25.71 16.53-26.07L16.53-26.07Q15.43-26.66 14.36-27.01 13.28-27.37 11.74-27.37L11.74-27.37Q9.23-27.37 7.68-26.07 6.13-24.78 6.13-22.46L6.13-22.46Q6.13-21.07 6.81-20.17 7.5-19.26 8.54-18.73 9.59-18.19 11.47-17.48L11.47-17.48Q11.6-17.46 12.04-17.29L12.04-17.29Q14.62-16.28 16.27-15.34 17.92-14.4 19.08-12.65 20.24-10.89 20.24-8.15L20.24-8.15Q20.24-5.59 19.06-3.69 17.87-1.78 15.69-0.77 13.5 0.24 10.6 0.24L10.6 0.24ZM31.96 0.24Q29.78 0.24 28.07-1.07 26.36-2.39 26.36-5.74L26.36-5.74 26.36-19.58 24.19-19.58Q23.73-19.58 23.52-19.89 23.31-20.19 23.31-20.87L23.31-20.87 23.31-21.41Q23.31-22.09 23.52-22.4 23.73-22.71 24.19-22.71L24.19-22.71 26.36-22.71 26.88-27.25Q26.93-28.2 28.27-28.2L28.27-28.2 28.68-28.2Q29.37-28.2 29.68-27.97 30-27.73 30-27.25L30-27.25 30-22.71 33.64-22.71Q34.1-22.71 34.31-22.4 34.52-22.09 34.52-21.41L34.52-21.41 34.52-20.87Q34.52-20.19 34.31-19.89 34.1-19.58 33.64-19.58L33.64-19.58 30-19.58 30-6.08Q30-4.3 30.62-3.59 31.25-2.88 32.32-2.88L32.32-2.88Q33.15-2.88 33.6-2.98 34.06-3.08 34.2-3.08L34.2-3.08Q34.59-3.08 34.85-2.29 35.1-1.51 35.1-1.05L35.1-1.05Q35.1 0.24 31.96 0.24L31.96 0.24ZM49.02 0.24Q44.11 0.24 41.54-2.7 38.96-5.64 38.96-11.25L38.96-11.25Q38.96-16.87 41.57-19.91 44.18-22.95 49.02-22.95L49.02-22.95Q53.8-22.95 56.34-19.93 58.88-16.92 58.88-11.25L58.88-11.25Q58.88-5.62 56.38-2.69 53.88 0.24 49.02 0.24L49.02 0.24ZM48.9-2.88Q52.07-2.88 53.58-4.94 55.1-7.01 55.1-11.33L55.1-11.33Q55.1-15.67 53.58-17.75 52.07-19.82 48.9-19.82L48.9-19.82Q45.75-19.82 44.26-17.76 42.77-15.7 42.77-11.33L42.77-11.33Q42.77-6.98 44.25-4.93 45.72-2.88 48.9-2.88L48.9-2.88ZM66.94 0.07Q66.01 0.07 65.59-0.16 65.18-0.39 65.18-0.88L65.18-0.88 65.18-16.11Q65.18-18.95 64.91-20.2 64.64-21.46 64.64-21.58L64.64-21.58Q64.64-22.12 65.46-22.35 66.28-22.58 67.01-22.58L67.01-22.58Q67.6-22.58 67.89-21.96 68.18-21.34 68.4-20.21L68.4-20.21 68.52-19.7Q70.84-22.95 73.55-22.95L73.55-22.95Q74.8-22.95 75.43-22.5 76.07-22.05 76.07-21.29L76.07-21.29Q76.07-20.56 75.81-19.74 75.55-18.92 75.21-18.92L75.21-18.92Q75.04-18.92 74.6-19.07L74.6-19.07Q74.21-19.24 73.82-19.32 73.43-19.41 72.82-19.41L72.82-19.41Q71.82-19.41 70.93-18.82 70.04-18.24 69.43-17.53 68.82-16.82 68.82-16.75L68.82-16.75 68.82-0.88Q68.82-0.39 68.4-0.16 67.99 0.07 67.11 0.07L67.11 0.07 66.94 0.07ZM83.22 9.03Q81.8 9.03 81.8 8.33L81.8 8.33Q81.8 8.15 82 7.62L82 7.62 85.63-1.22 78.04-21.48Q78.02-21.58 77.97-21.77 77.92-21.95 77.92-22.05L77.92-22.05Q77.92-22.39 78.38-22.58 78.85-22.78 79.8-22.78L79.8-22.78 80.14-22.78Q81.61-22.78 81.87-22.09L81.87-22.09 86.29-10.33Q86.88-8.79 87.69-5.96L87.69-5.96 87.76-5.96 88.27-7.57Q88.39-7.93 88.69-8.83 88.98-9.72 89.22-10.33L89.22-10.33 93.54-22.09Q93.76-22.78 95.33-22.78L95.33-22.78 95.47-22.78Q97.18-22.78 97.18-22.05L97.18-22.05Q97.18-21.88 97.06-21.46L97.06-21.46 85.93 8.13Q85.54 9.03 83.88 9.03L83.88 9.03 83.22 9.03ZM114.47 0.24Q107.34 0.24 103.92-3.52 100.5-7.28 100.5-15.21L100.5-15.21Q100.5-30.66 114.54-30.66L114.54-30.66Q116.59-30.66 118.52-30.24 120.45-29.81 121.64-29.17 122.84-28.54 122.84-27.95L122.84-27.95Q122.84-27.59 122.58-26.98 122.33-26.37 121.98-25.9 121.64-25.44 121.37-25.44L121.37-25.44Q121.25-25.44 120.69-25.76L120.69-25.76Q119.42-26.44 118.03-26.9 116.64-27.37 114.64-27.37L114.64-27.37Q109.39-27.37 106.91-24.45 104.43-21.53 104.43-15.16L104.43-15.16Q104.43-8.94 106.88-5.99 109.34-3.05 114.47-3.05L114.47-3.05Q116.61-3.05 118.15-3.56 119.69-4.08 121.11-4.83L121.11-4.83Q121.79-5.2 121.94-5.2L121.94-5.2Q122.2-5.2 122.56-4.74 122.91-4.27 123.18-3.7 123.45-3.13 123.45-2.88L123.45-2.88Q123.45-2.27 122.22-1.53 120.98-0.78 118.92-0.27 116.86 0.24 114.47 0.24L114.47 0.24ZM130.55 0.07Q129.62 0.07 129.21-0.16 128.79-0.39 128.79-0.88L128.79-0.88 128.79-16.11Q128.79-18.95 128.53-20.2 128.26-21.46 128.26-21.58L128.26-21.58Q128.26-22.12 129.07-22.35 129.89-22.58 130.62-22.58L130.62-22.58Q131.21-22.58 131.5-21.96 131.8-21.34 132.02-20.21L132.02-20.21 132.14-19.7Q134.46-22.95 137.17-22.95L137.17-22.95Q138.41-22.95 139.05-22.5 139.68-22.05 139.68-21.29L139.68-21.29Q139.68-20.56 139.43-19.74 139.17-18.92 138.83-18.92L138.83-18.92Q138.66-18.92 138.22-19.07L138.22-19.07Q137.83-19.24 137.44-19.32 137.05-19.41 136.44-19.41L136.44-19.41Q135.43-19.41 134.54-18.82 133.65-18.24 133.04-17.53 132.43-16.82 132.43-16.75L132.43-16.75 132.43-0.88Q132.43-0.39 132.02-0.16 131.6 0.07 130.72 0.07L130.72 0.07 130.55 0.07ZM150.3 0.24Q146.98 0.24 144.93-1.39 142.88-3.03 142.88-6.25L142.88-6.25Q142.88-9.64 144.95-11.36 147.03-13.09 150.02-13.59 153.01-14.09 157.28-14.16L157.28-14.16 157.28-16.21Q157.28-17.85 156.17-18.84 155.06-19.82 152.52-19.82L152.52-19.82Q150.59-19.82 149.14-19.37 147.69-18.92 146.42-18.29L146.42-18.29Q145.88-18.02 145.76-18.02L145.76-18.02Q145.47-18.02 145.11-18.44 144.76-18.87 144.5-19.41 144.25-19.95 144.25-20.19L144.25-20.19Q144.25-20.75 145.4-21.41 146.56-22.07 148.44-22.51 150.32-22.95 152.38-22.95L152.38-22.95Q156.45-22.95 158.7-21.17 160.94-19.38 160.94-16.16L160.94-16.16 160.94-6.42Q160.94-3.59 161.2-2.33 161.46-1.07 161.46-0.95L161.46-0.95Q161.46-0.42 160.64-0.18 159.82 0.05 159.11 0.05L159.11 0.05Q158.53 0.05 158.25-0.61 157.97-1.27 157.7-2.51L157.7-2.51 157.6-3Q156.26-1.51 154.44-0.63 152.62 0.24 150.3 0.24L150.3 0.24ZM150.5-2.91Q152.64-2.91 154.16-3.69 155.67-4.47 157.28-5.91L157.28-5.91 157.28-11.04Q154.06-11.01 151.98-10.77 149.91-10.52 148.35-9.53 146.78-8.54 146.78-6.47L146.78-6.47Q146.78-4.74 147.72-3.82 148.66-2.91 150.5-2.91L150.5-2.91ZM170.83 0.07Q169.93 0.07 169.51-0.16 169.1-0.39 169.1-0.88L169.1-0.88 169.1-19.58 167.36-19.58Q166.48-19.58 166.48-20.87L166.48-20.87 166.48-21.41Q166.48-22.71 167.36-22.71L167.36-22.71 169.1-22.71 169.1-26.83Q169.1-30.25 170.79-31.53 172.49-32.81 174.69-32.81L174.69-32.81Q177.86-32.81 177.86-31.49L177.86-31.49Q177.86-31.27 177.75-30.77 177.64-30.27 177.43-29.88 177.23-29.49 176.96-29.49L176.96-29.49Q176.81-29.49 176.35-29.59 175.88-29.69 175.08-29.69L175.08-29.69Q174.35-29.69 173.84-29.47 173.34-29.25 173.04-28.54 172.73-27.83 172.73-26.49L172.73-26.49 172.73-22.71 176.52-22.71Q176.98-22.71 177.19-22.4 177.4-22.09 177.4-21.41L177.4-21.41 177.4-20.87Q177.4-20.19 177.19-19.89 176.98-19.58 176.52-19.58L176.52-19.58 172.73-19.58 172.73-0.88Q172.73-0.39 172.32-0.16 171.9 0.07 171.02 0.07L171.02 0.07 170.83 0.07ZM188.77 0.24Q186.6 0.24 184.89-1.07 183.18-2.39 183.18-5.74L183.18-5.74 183.18-19.58 181.01-19.58Q180.54-19.58 180.34-19.89 180.13-20.19 180.13-20.87L180.13-20.87 180.13-21.41Q180.13-22.09 180.34-22.4 180.54-22.71 181.01-22.71L181.01-22.71 183.18-22.71 183.69-27.25Q183.74-28.2 185.08-28.2L185.08-28.2 185.5-28.2Q186.18-28.2 186.5-27.97 186.82-27.73 186.82-27.25L186.82-27.25 186.82-22.71 190.46-22.71Q190.92-22.71 191.13-22.4 191.33-22.09 191.33-21.41L191.33-21.41 191.33-20.87Q191.33-20.19 191.13-19.89 190.92-19.58 190.46-19.58L190.46-19.58 186.82-19.58 186.82-6.08Q186.82-4.3 187.44-3.59 188.06-2.88 189.14-2.88L189.14-2.88Q189.97-2.88 190.42-2.98 190.87-3.08 191.02-3.08L191.02-3.08Q191.41-3.08 191.66-2.29 191.92-1.51 191.92-1.05L191.92-1.05Q191.92 0.24 188.77 0.24L188.77 0.24Z" opacity="1" transform="matrix(1,0,0,1,0,0)" fill="#f2aa64" class="wordmark-text-0" data-fill-palette-color="primary" id="text-0"></path></svg></g></svg></g></svg></g></svg></g></svg></g></svg></g></svg></g><g mask="url(#eb808834-b033-4bcc-a24a-10452fc250a2)"><g transform="matrix(3.1844155844155844, 0, 0, 3.1844155844155844, 58.60104867910408, 1)"><svg xmlns="http://www.w3.org/2000/svg" xmlns:xlink="http://www.w3.org/1999/xlink" version="1.1" x="0" y="0" viewBox="6.300000190734863 11.5 87.39999389648438 77" style="enable-background:new 0 0 100 100;" xml:space="preserve" height="77" width="87.39999389648438" class="icon-none" data-fill-palette-color="accent" id="none"><path d="M72.3 12.3L72.3 12.3 72.3 12.3l-0.4-0.8H28.2L6.3 50l21.8 38.5h43.7L93.7 50 72.3 12.3zM33.3 25.3L9.9 47.7l18.6-32.8L33.3 25.3zM70.7 14.8l6.4 35.7L36.9 25.8 70.7 14.8zM35.5 27.3l41 25.2-41 23.3V27.3zM77 54.5l-7.2 30.8-32.6-8.1L77 54.5zM33.5 75L9.9 50.5l23.6-22.7V75zM33.2 77.6l-4.6 7.7L11.5 55.1 33.2 77.6zM35 78.6l31.4 7.9H30.2L35 78.6zM79.3 53.3l11.6-2.5L72.1 84 79.3 53.3zM90.7 48.9l-11.4 2.5-5.9-33.1L90.7 48.9zM35 24.3l-5-10.8h38.2L35 24.3z" fill="#2d314e" data-fill-palette-color="accent"></path></svg></g></g></svg></g><defs></defs></svg><rect width="395.52" height="247.2" fill="none" stroke="none" visibility="hidden"></rect></g></svg></g></svg>