<svg xmlns="http://www.w3.org/2000/svg" version="1.1" xmlns:xlink="http://www.w3.org/1999/xlink" xmlns:svgjs="http://svgjs.dev/svgjs" width="1000" height="623" viewBox="0 0 1000 623"><g transform="matrix(1,0,0,1,-0.6060606060606233,0.2522267206477409)"><svg viewBox="0 0 396 247" data-background-color="#101924" preserveAspectRatio="xMidYMid meet" height="623" width="1000" xmlns="http://www.w3.org/2000/svg" xmlns:xlink="http://www.w3.org/1999/xlink"><g id="tight-bounds" transform="matrix(1,0,0,1,0.2400000000000091,-0.09999999999999432)"><svg viewBox="0 0 395.52 247.2" height="247.2" width="395.52"><g><svg></svg></g><g><svg viewBox="0 0 395.52 247.2" height="247.2" width="395.52"><mask id="6b9fdda9-bc8e-44fd-abd3-9fee8bf975cc"><rect width="640" height="400" fill="white"></rect><rect width="348.05760000000004" height="76.2895935570132" fill="black" y="85.45520322149339" x="23.731199999999973" id="transform-me"></rect></mask><g transform="matrix(1,0,0,1,39.55199999999999,97.68909081500647)"><svg viewBox="0 0 316.416 51.821818369987064" height="51.821818369987064" width="316.416"><g><svg viewBox="0 0 316.416 51.821818369987064" height="51.821818369987064" width="316.416"><g><svg viewBox="0 0 316.416 51.821818369987064" height="51.821818369987064" width="316.416"><g id="textblocktransform"><svg viewBox="0 0 316.416 51.821818369987064" height="51.821818369987064" width="316.416" id="textblock"><g><svg viewBox="0 0 316.416 51.821818369987064" height="51.821818369987064" width="316.416"><g transform="matrix(1,0,0,1,0,0)"><svg width="316.416" viewBox="4.199999809265137 -30.65999984741211 188.6999969482422 30.899999618530273" height="51.821818369987064" data-palette-color="#f2aa64"><path d="M5.52 0Q4.83 0 4.52-0.32 4.2-0.63 4.2-1.29L4.2-1.29 4.2-29.08Q4.2-29.76 4.52-30.07 4.83-30.37 5.52-30.37L5.52-30.37 13.28-30.37Q16.46-30.37 18.63-29.42 20.8-28.47 21.9-26.73 23-25 23-22.71L23-22.71Q23-21.29 22.34-19.89 21.68-18.48 20.58-17.47 19.48-16.46 18.24-16.11L18.24-16.11 18.24-15.94Q18.24-16.11 19.92-15.3 21.61-14.48 22.96-12.88 24.32-11.28 24.32-8.74L24.32-8.74Q24.32 0 12.99 0L12.99 0 5.52 0ZM8.03-17.29L13.09-17.29Q14.79-17.29 16.16-17.96 17.53-18.63 18.3-19.79 19.07-20.95 19.07-22.36L19.07-22.36Q19.07-24.8 17.6-25.94 16.14-27.08 12.92-27.08L12.92-27.08 8.03-27.08 8.03-17.29ZM8.03-3.3L14.38-3.3Q17.24-3.3 18.8-4.8 20.36-6.3 20.36-8.91L20.36-8.91Q20.36-11.33 18.65-12.66 16.94-13.99 13.62-13.99L13.62-13.99 8.03-13.99 8.03-3.3ZM31.25 0Q30.56 0 30.25-0.32 29.93-0.63 29.93-1.29L29.93-1.29 29.93-29.52Q29.93-30.49 31.69-30.49L31.69-30.49 32.03-30.49Q33.76-30.49 33.76-29.52L33.76-29.52 33.76-3.3 45.7-3.3Q46.16-3.3 46.36-2.99 46.56-2.69 46.56-2L46.56-2 46.56-1.29Q46.56-0.63 46.36-0.32 46.16 0 45.7 0L45.7 0 31.25 0ZM62.57 0.24Q56.05 0.24 52.63-3.71 49.21-7.67 49.21-15.28L49.21-15.28Q49.21-22.88 52.62-26.77 56.03-30.66 62.57-30.66L62.57-30.66Q69.14-30.66 72.55-26.77 75.97-22.88 75.97-15.28L75.97-15.28Q75.97-7.67 72.55-3.71 69.14 0.24 62.57 0.24L62.57 0.24ZM62.57-3.05Q67.16-3.05 69.6-6.19 72.04-9.33 72.04-15.28L72.04-15.28Q72.04-21.24 69.61-24.3 67.18-27.37 62.57-27.37L62.57-27.37Q57.98-27.37 55.56-24.3 53.14-21.24 53.14-15.28L53.14-15.28Q53.14-9.3 55.56-6.18 57.98-3.05 62.57-3.05L62.57-3.05ZM94.33 0.24Q87.79 0.24 84.37-3.53 80.95-7.3 80.95-14.94L80.95-14.94Q80.95-30.66 94.99-30.66L94.99-30.66Q97.04-30.66 98.97-30.24 100.9-29.81 102.09-29.17 103.29-28.54 103.29-27.95L103.29-27.95Q103.29-27.59 103.03-26.98 102.78-26.37 102.43-25.9 102.09-25.44 101.82-25.44L101.82-25.44Q101.7-25.44 101.14-25.76L101.14-25.76Q99.87-26.44 98.48-26.9 97.09-27.37 95.09-27.37L95.09-27.37Q89.57-27.37 87.22-24.33 84.88-21.29 84.88-15.33L84.88-15.33Q84.88-9.72 87.07-6.38 89.25-3.05 94.62-3.05L94.62-3.05Q96.26-3.05 97.78-3.21 99.31-3.37 100.21-3.61L100.21-3.61 100.21-12.38 95.13-12.38Q94.67-12.38 94.46-12.68 94.26-12.99 94.26-13.67L94.26-13.67 94.26-14.38Q94.26-15.06 94.46-15.37 94.67-15.67 95.13-15.67L95.13-15.67 102.73-15.67Q103.41-15.67 103.73-15.37 104.05-15.06 104.05-14.38L104.05-14.38 104.05-2.88Q104.05-1.2 101.31-0.48 98.58 0.24 94.33 0.24L94.33 0.24ZM120.45 0.07Q119.47 0.07 119.03-0.11 118.59-0.29 118.59-0.66L118.59-0.66Q118.59-0.83 118.71-1.25L118.71-1.25 128.99-29.79Q129.24-30.49 130.72-30.49L130.72-30.49 131.99-30.49Q133.48-30.49 133.73-29.79L133.73-29.79 144.01-1.22Q144.13-0.95 144.13-0.66L144.13-0.66Q144.13 0.07 142.3 0.07L142.3 0.07 141.93 0.07Q140.42 0.07 140.17-0.61L140.17-0.61 137.63-7.74 124.89-7.74 122.4-0.61Q122.18 0.07 120.67 0.07L120.67 0.07 120.45 0.07ZM126.09-11.04L136.46-11.04 131.92-23.95Q131.73-24.49 131.6-25.17 131.48-25.85 131.38-26.49L131.38-26.49 131.29-26.49Q130.99-24.85 130.63-23.95L130.63-23.95 126.09-11.04ZM150.08 0.07Q149.18 0.07 148.78-0.16 148.37-0.39 148.37-0.88L148.37-0.88 148.37-29.08Q148.37-29.79 148.68-30.08 148.98-30.37 149.67-30.37L149.67-30.37 158.46-30.37Q162.27-30.37 165.21-28.55 168.15-26.73 168.15-21.88L168.15-21.88Q168.15-18.26 166.46-16.27 164.78-14.28 162.68-13.61 160.58-12.94 158.9-12.94L158.9-12.94 152.16-12.94 152.16-0.88Q152.16-0.39 151.74-0.16 151.33 0.07 150.45 0.07L150.45 0.07 150.08 0.07ZM152.16-16.24L158.94-16.24Q160.04-16.24 161.24-16.71 162.44-17.19 163.32-18.44 164.19-19.7 164.19-21.88L164.19-21.88Q164.19-24.78 162.47-25.93 160.75-27.08 158.33-27.08L158.33-27.08 152.16-27.08 152.16-16.24ZM174.84 0.07Q173.93 0.07 173.53-0.16 173.13-0.39 173.13-0.88L173.13-0.88 173.13-29.08Q173.13-29.79 173.43-30.08 173.74-30.37 174.42-30.37L174.42-30.37 183.21-30.37Q187.02-30.37 189.96-28.55 192.9-26.73 192.9-21.88L192.9-21.88Q192.9-18.26 191.22-16.27 189.53-14.28 187.43-13.61 185.33-12.94 183.65-12.94L183.65-12.94 176.91-12.94 176.91-0.88Q176.91-0.39 176.5-0.16 176.08 0.07 175.2 0.07L175.2 0.07 174.84 0.07ZM176.91-16.24L183.7-16.24Q184.8-16.24 185.99-16.71 187.19-17.19 188.07-18.44 188.95-19.7 188.95-21.88L188.95-21.88Q188.95-24.78 187.23-25.93 185.5-27.08 183.09-27.08L183.09-27.08 176.91-27.08 176.91-16.24Z" opacity="1" transform="matrix(1,0,0,1,0,0)" fill="#f2aa64" class="wordmark-text-0" data-fill-palette-color="primary" id="text-0"></path></svg></g></svg></g></svg></g></svg></g><g></g></svg></g></svg></g><g mask="url(#6b9fdda9-bc8e-44fd-abd3-9fee8bf975cc)"><g transform="matrix(3.1844155844155844, 0, 0, 3.1844155844155844, 58.60104867910408, 1)"><svg xmlns="http://www.w3.org/2000/svg" xmlns:xlink="http://www.w3.org/1999/xlink" version="1.1" x="0" y="0" viewBox="6.300000190734863 11.5 87.39999389648438 77" style="enable-background:new 0 0 100 100;" xml:space="preserve" height="77" width="87.39999389648438" class="icon-none" data-fill-palette-color="accent" id="none"><path d="M72.3 12.3L72.3 12.3 72.3 12.3l-0.4-0.8H28.2L6.3 50l21.8 38.5h43.7L93.7 50 72.3 12.3zM33.3 25.3L9.9 47.7l18.6-32.8L33.3 25.3zM70.7 14.8l6.4 35.7L36.9 25.8 70.7 14.8zM35.5 27.3l41 25.2-41 23.3V27.3zM77 54.5l-7.2 30.8-32.6-8.1L77 54.5zM33.5 75L9.9 50.5l23.6-22.7V75zM33.2 77.6l-4.6 7.7L11.5 55.1 33.2 77.6zM35 78.6l31.4 7.9H30.2L35 78.6zM79.3 53.3l11.6-2.5L72.1 84 79.3 53.3zM90.7 48.9l-11.4 2.5-5.9-33.1L90.7 48.9zM35 24.3l-5-10.8h38.2L35 24.3z" fill="#2c304c" data-fill-palette-color="accent"></path></svg></g></g></svg></g><defs></defs></svg><rect width="395.52" height="247.2" fill="none" stroke="none" visibility="hidden"></rect></g></svg></g></svg>